<?xml version="1.0" encoding="utf-8"?>
<!-- Generator: Adobe Illustrator 21.1.0, SVG Export Plug-In . SVG Version: 6.00 Build 0)  -->
<svg version="1.1" id="Capa_1" xmlns="http://www.w3.org/2000/svg" xmlns:xlink="http://www.w3.org/1999/xlink" x="0px" y="0px"
	 viewBox="0 0 720 576" style="enable-background:new 0 0 720 576;" xml:space="preserve">
<style type="text/css">
	.st0{fill:#38332D;}
	.st1{fill:#FEFEFE;}
	.st2{fill:#EFB4BB;}
	.st3{fill:#604A31;}
</style>
<g>
	<path class="st0" d="M289.5,99.3c0.4,0.5,1,0.2,1.5,0.3c7.3,1.4,12.4,5.8,16.2,11.9c3.8,6,5.8,12.6,6.7,19.5
		c1.3,10.4,2.1,20.8,3.6,31.2c1.5,10,3.3,20,6.9,29.5c1.3,3.3,2.8,6.4,5.1,9c3.5,4.1,7.6,4.9,12.3,2.3c5-2.8,8-7.3,10-12.4
		c2.3-5.6,3.3-11.5,4.3-17.4c1.9-11.2,3.2-22.5,6.3-33.4c2.5-8.8,6.3-17,12.5-23.8c3.4-3.7,7.2-6.9,12-8.7c7.9-3,15.5-0.7,20.4,6.2
		c3.3,4.6,5,9.8,5.9,15.3c1.8,10.7,0.5,21.1-2.8,31.3c-4.8,15.1-12.3,28.8-22.4,41c-2.5,3-4.8,6.1-6.6,9.7
		c-2.7,5.4-2.5,10.7,0.7,15.9c2.6,4.2,5.4,8.2,8,12.4c7.4,12,13.3,24.6,17.9,37.9c1.2,3.3,1.7,6.7,0.7,10.1c-1.1,4-4.1,6.6-7.4,8.8
		c-2.1,1.4-4.3,2.6-6.6,3.6c-7.2,3.2-14.3,6.5-22,9c1.9,0.9,3.6,1.6,5.3,2.4c10,4.8,19.1,10.9,27.8,17.8c6.2,4.9,12.4,10,18.4,15.2
		c2.6,2.3,5,4.8,6.1,8.1c1.7,4.9,0.1,9.8-4.1,11.9c-1.9,1-4,1.3-6.2,1.2c-4.4-0.2-8.2-1.8-11.8-4.2c-2.4-1.7-4.7-3.5-7.3-4.9
		c-1.9-1-3.8-1.7-6-1.6c3.1,10.3,5.3,20.7,6.8,31.4c1.7-1.1,3.4-2.1,5.2-2.7c7.3-2.3,12.6,2.7,12.8,9.3c0,1.2,0.3,1.6,1.5,1.8
		c5.8,1.1,9.7,5.1,10.4,10.6c0.2,0.7,0,1.4,0.1,2c0.2,4.6-3.9,8.7-7.6,10.1c-0.6,0.2-1.5,0.2-1.9,0.7c-0.4,0.6,0.2,1.3,0.3,1.9
		c0.7,3.5,0.4,6.8-1.7,9.7c-2.4,3.3-5.7,4.5-9.6,4.1c-2.4-0.3-4.6-1.1-6.6-2.3c-0.3-0.2-0.7-0.4-1.1-0.6c-0.5,1.5-0.4,3.1-0.6,4.6
		c-1.2,11.3-3,22.5-6.1,33.5c-1.6,5.7-4.1,11.1-8,15.7c-3.1,3.7-7.1,5.9-11.6,7.3c-2.4,0.7-4.9,0.8-7.3,1.1c-0.2,0-0.3,0-0.5,0
		c-0.6-0.3-1.2-0.1-1.7-0.1s-0.9,0-1.4,0c-0.7,0.1-1.5-0.1-2.2,0.1c-0.2,0-0.5,0-0.7,0c-0.5-0.3-1-0.1-1.5-0.1
		c-1.7-0.1-2.6-0.9-3.1-2.5c-0.8-2.7-1.6-5.5-2.4-8.2c-4.2-14.9-7.9-30-11.2-45.2c-0.2-0.9-0.4-1.2-1.4-1.1c-2.5,0.3-5,0.3-7.5,0.3
		c-2.3,0-4.5-0.2-6.8-0.5c-0.9-0.1-1.1,0.1-1.3,1c-1.1,5.5-2.4,11-3.7,16.5c-2.8,11.8-5.9,23.4-9.2,35c-0.2,0.7-0.4,1.5-0.7,2.2
		c-0.5,1.8-1.3,2.3-3.1,2.4c-0.7,0-1.4-0.1-2,0.1c-0.2,0-0.3,0-0.5,0c-0.6-0.3-1.3-0.1-1.9-0.1c-0.5,0-0.9,0-1.4,0
		c-0.6,0.1-1.3-0.1-2,0.1c-0.2,0-0.5,0-0.7,0c-1-0.3-2.1-0.1-3.2-0.3c-8.5-1.3-14.8-5.9-18.9-13.4c-3.3-6-5.1-12.6-6.5-19.2
		c-1.3-6.3-2.5-12.6-3.2-19c-0.6-5.3-1.1-10.6-1.4-15.9c-0.3-4.9-0.2-9.8-0.2-14.7c0-7.9,0.7-15.8,1.8-23.6
		c1.4-10.2,3.5-20.3,6.3-30.3c0.4-1.4,0.2-1.6-1.2-1.3c-3.1,0.6-5.6,2.4-8.1,4.2c-3,2.2-6.1,4.4-9.8,5.5c-3.4,1-6.8,1.3-10.3,0.1
		c-2.3-0.8-4-2.3-5.1-4.4c-0.4-0.7-0.4-1.5-0.6-2.3c0-1.4,0-2.9,0-4.3c0.6-3.6,2.8-6.2,5.2-8.7c2.8-2.8,5.9-5.2,9-7.7
		c5.2-4.2,10.5-8.4,16-12.2c8.8-6.2,17.9-11.9,27.8-16.3c0.5-0.2,1.1-0.5,1.8-0.8c-1-0.7-2-1.2-3-1.7c-8.8-5-16.2-11.5-21.9-19.9
		c-2.2-3.3-3.9-6.8-4.5-10.8c-0.7-4.7,0.1-9,2.7-13.1c3-4.6,6.5-8.7,9.7-13.1c7.1-9.8,14.3-19.5,21.4-29.2c0.5-0.7,0.5-1.1-0.2-1.7
		c-3-2.2-5.7-4.8-8.3-7.4c-4.4-4.4-8.4-9.1-11.9-14.2c-5.5-7.9-10.2-16.3-13.6-25.3c-3-7.9-5.1-16-6.1-24.4
		c-0.6-4.7-0.8-9.5-0.6-14.2c0.3-6.7,1.2-13.4,3.4-19.8c1.2-3.4,2.8-6.5,5.3-9.2s5.6-4.3,9.3-4.7C285.8,99.3,287.7,99.3,289.5,99.3z
		"/>
	<path class="st1" d="M381.7,299.7c-3,1.3-6,2.5-9.1,3.6c-8.7,3-17.5,5.4-26.7,6.4c-14.7,1.6-28.7-0.5-42-7.2
		c-0.4-0.2-0.8-0.5-1.3-0.8c1.1-0.4,1.6-1.2,1.9-2.2c3.4-12.1,2-23.2-6.4-32.9c-3.2-3.7-7.4-6.2-12.1-7.7c-0.3-0.1-0.5-0.2-0.9-0.3
		c0.3-0.4,0.6-0.8,0.8-1.2c9.1-12.3,18.1-24.5,27.2-36.8c1.5-2,1.4-2.8-0.6-4.4c-5.2-4-10-8.3-14.4-13.2
		c-13.7-15.5-22.6-33.4-25.8-53.9c-1.8-11.1-1.4-22.2,1.6-33.1c0.7-2.8,1.8-5.4,3.7-7.6c3.7-4.4,10.9-5.6,16.6-2.8
		c3.5,1.7,6,4.4,8.1,7.6c3.9,5.9,5.9,12.4,6.9,19.3c1.5,10,2.2,20,3.6,30c1.7,11.7,3.9,23.2,8.8,34.1c1.3,2.8,2.8,5.5,4.8,7.8
		c5,5.7,11.4,6.8,18.1,2.9c5.7-3.3,9.2-8.4,11.7-14.3c2.5-5.9,3.6-12.1,4.8-18.4c1.6-8.7,2.7-17.5,4.6-26.2
		c2.1-9.4,5-18.4,10.8-26.2c2.8-3.7,5.9-7.1,10.1-9.4c6.7-3.6,13.4-1.9,17.4,4.6c2.9,4.6,4.3,9.7,4.8,15c1.2,10.7-1.1,21-4.7,31
		c-4.5,12.5-11.2,23.8-19.5,34.1c-2.9,3.6-5.6,7.3-7.6,11.5c-3,6.4-3,12.7,0.2,19c2,4,4.5,7.7,7.1,11.4c3.2,4.7,5.9,9.6,8.6,14.6
		c0.4,0.7,0.2,1-0.4,1.4c-8,5.7-13.7,13.2-16.1,22.9c-2,7.9-0.5,15.1,5.3,21.1C381.6,299.5,381.6,299.6,381.7,299.7z"/>
	<path class="st2" d="M379.3,377.4c0,9-0.9,17.8-3.8,26.3c-2.5,7.2-6.2,13.8-12.3,18.6c-5.3,4.3-11.4,6.7-18.1,7.6
		c-10.8,1.6-21.1-0.1-30.8-5.2c-9.2-4.8-14.6-12.8-17.6-22.5c-2.4-7.9-3-16-2.5-24.2c1.4-23.2,8.7-44.6,20.1-64.6
		c0.5-0.9,1-1.1,2-0.8c9.1,2.3,18.4,2.9,27.8,2.1c6-0.5,12-1.5,17.8-3c0.8-0.2,1.1,0,1.5,0.6c5.1,9.1,8.6,18.8,11.2,28.9
		C377.4,352.4,379.3,366.4,379.3,377.4z"/>
	<path class="st1" d="M310.1,310.6c-2.3,4-4.4,7.9-6.2,11.9c-6.8,14.5-11.4,29.6-13.7,45.4c-1.2,8.1-1.6,16.3-0.6,24.5
		c1.1,10,4,19.3,10.5,27.2c5.8,7,13.3,11.3,21.9,13.8c1.1,0.3,1.6,0.4,1.2,1.9c-1.5,5.9-2.8,12-4.2,17.9
		c-2.7,11.2-5.6,22.3-8.8,33.3c-0.1,0.4-0.1,0.8-0.8,0.9c-5.2,0.3-10.3-0.1-15.1-2.5c-4.3-2.1-7.1-5.7-9.2-9.9
		c-3.2-6.3-4.9-13-6.2-19.9c-1.6-8.9-2.9-17.9-3.5-27c-0.6-9.5-0.6-18.9,0.1-28.4c0.9-13.1,3.1-25.9,6.5-38.5
		c0.7-2.6,1.5-5.1,2.2-7.7c0.6-1.9-0.1-3.1-2.1-3.7c-3.6-1-7-0.5-10.2,1.1c-3.2,1.5-6,3.7-8.9,5.6c-2.6,1.7-5.3,3.1-8.4,3.6
		c-1.5,0.2-2.9,0.3-4.4-0.3c-2.6-1.1-3.5-3.3-2.3-5.9c1-2.2,2.5-3.9,4.3-5.4c13.4-11.7,27.3-22.7,43.1-31.2
		C300,314.8,304.8,312.6,310.1,310.6z"/>
	<path class="st1" d="M369.3,312.6c2.8,1,5.2,2.2,7.7,3.4c9.4,4.6,18,10.5,26.2,17c6.7,5.3,13.4,10.8,19.6,16.7c1.1,1,2,2.2,2.7,3.5
		c2,3.5,0.1,6.9-4,7c-2.9,0.1-5.5-0.7-8-2c-2.8-1.4-5.3-3.4-8-5.1c-3.2-2-6.5-3.8-10.4-3.8c-1.2,0-2.5,0.2-3.7,0.5
		c-1.8,0.5-2.5,1.8-2,3.6c3.6,11.5,6.1,23.1,7.7,35c1,7.3,1.5,14.7,1.6,22.1c0.2,10.4-0.4,20.8-1.9,31.2c-1.3,9-2.5,18-5.5,26.6
		c-1.4,4.1-3.2,8.1-5.9,11.6c-3.4,4.3-8,6.5-13.3,7.2c-2.5,0.4-5,0.4-7.5,0.3c-0.7,0-0.9-0.2-1.1-0.9c-3.7-12.7-7-25.5-10.1-38.4
		c-1-4.4-1.9-8.7-3-13.1c-0.2-0.8,0-1,0.7-1.2c5-1.3,9.6-3.4,13.8-6.5c7.3-5.5,11.9-12.9,14.9-21.4c2.6-7.3,3.8-14.9,4.1-22.7
		c0.8-20-2.2-39.4-9.2-58.2c-0.8-2.1-1.7-4.2-2.6-6.3C371.4,316.8,370.4,314.8,369.3,312.6z"/>
	<path class="st1" d="M403.7,411.6c0-6-0.2-12.1-0.9-18.1c-0.1-0.9,0.1-1.6,0.7-2.3c1.4-1.5,3-2.6,4.9-3.3c3.6-1.1,6.4,0.8,6.5,4.6
		c0,1-0.1,1.9-0.4,2.8c-0.8,2.4,0.4,3.9,2.9,3.6c1.4-0.1,2.7-0.1,4,0.3c3,0.9,5.1,3.3,5.3,5.9c0.3,4.2-3.7,7.8-8,7.2
		c-0.2,0-0.5-0.1-0.7-0.1c-1.9-0.3-2.7-0.1-3.4,1.1c-0.6,1-0.4,2.3,0.8,3.4c1.8,1.8,2.5,4.1,2.3,6.6c-0.3,3.2-2.9,5.2-6,4.6
		c-3-0.5-5.4-2-7.5-4.2c-0.4-0.4-0.5-0.9-0.5-1.4C403.8,418.8,403.7,415.2,403.7,411.6z"/>
	<path class="st2" d="M395.5,259.5c1.8,3.7,3.4,7.4,4.9,11.2c1.4,3.5,2.9,7,3.7,10.7c0.6,3.2-0.4,5.9-2.8,8.1
		c-2.3,2-5.1,3.3-7.7,4.7c-1.8,1-3.7,1.8-5.6,2.8c-0.8,0.4-1.3,0.3-2-0.3c-4.8-4.6-6.4-10.2-5-16.6
		C383,271.3,388.3,264.8,395.5,259.5z"/>
	<path class="st2" d="M299.2,299.8c-8.3-5.5-15.3-12.1-19.3-21.3c-2.3-5.3-1.9-10.3,1.7-15c0.2-0.2,0.2-0.6,0.8-0.5
		c3.9,1.1,7.6,2.7,10.6,5.5c4.5,4.1,6.9,9.3,7.8,15.3c0.8,4.9,0.3,9.8-1.2,14.5C299.4,298.8,299.3,299.2,299.2,299.8z"/>
	<path class="st0" d="M279.6,160.1c0-4.1,1.2-9.3,3.7-14c0.9-1.7,2-3.2,3.5-4.4c3.9-3.3,8.9-3.1,12.4,0.7c2.4,2.6,3.8,5.7,4.7,9
		c3.5,12,6.9,24,10.3,36c1.8,6.3,3.8,12.4,7.2,18c0.5,0.8,1.3,1.5,1.7,2.4c0.4,0.9,0.5,1.8-0.1,2.6c-0.8,0.9-1.8,1.3-2.9,0.9
		c-1.2-0.5-2.5-0.7-3.7-1c-6.9-1.8-12.6-5.6-17.6-10.4c-7.5-7.2-13.4-15.4-16.9-25.3C280.4,170.3,279.6,165.9,279.6,160.1z"/>
	<path class="st0" d="M400.1,161.2c-0.2,7.9-3.4,16.7-9,24.6c-7.3,10.3-16.7,17.9-28.9,21.6c-0.7,0.2-0.9,0.7-1.3,1.1
		c-1,1.3-2.8,1.4-4,0.4c-0.8-0.7-1.1-1.8-0.5-2.7c5.6-8,8-17.2,10.6-26.4c3-10.3,5.9-20.7,8.9-31c0.7-2.3,1.6-4.4,2.9-6.4
		c4.4-6.4,11.9-6.4,16.3,0C398.5,147.1,400.1,152.7,400.1,161.2z"/>
	<path class="st0" d="M337.1,278c0-1.5-0.1-3.5-0.5-5.4c-0.1-0.6-0.4-0.8-1-1c-2.4-0.7-4.7-1.6-6.5-3.3c-3.6-3.4-3.5-8.4,0.5-11.4
		c3.7-2.8,8-3.4,12.5-3c2.6,0.2,5,1,7,2.7c4.5,4,3.1,11.7-2.5,14.4c-1.3,0.6-2.6,1-4,1.1c-0.6,0.1-0.9,0.2-0.8,0.8
		c0.7,4.9,0.2,9.8-0.4,14.7c-0.2,1.4-0.2,1.4,1.2,1c4.2-1.2,7.7-3.5,10.1-7.2c0.6-1,1.5-1.5,2.6-1.3c2.1,0.3,2.9,2.2,1.7,3.9
		c-3.6,5.4-8.8,8.6-15.1,9.8c-7.8,1.5-14.8,0-20.9-5.3c-0.9-0.8-1.7-1.6-2.4-2.5c-0.9-1.3-0.6-3,0.7-3.9c1.1-0.8,2.1-0.6,3.1,0.6
		c2.7,3.2,6.1,5.2,10.2,6.1c3.4,0.8,3.4,0.8,3.8-2.6C336.8,283.7,337.1,281.1,337.1,278z"/>
	<path class="st0" d="M308.5,251c-2.8,0-4.7-2.1-4.7-5c0-3,2-5,4.9-5s4.8,2.1,4.8,5.1C313.5,249.1,311.5,251.1,308.5,251z"/>
	<path class="st0" d="M373.7,251c-2.9,0-4.9-2.1-4.9-5c0-3,2-4.9,4.8-5c2.9,0,4.9,2,4.9,5S376.6,251,373.7,251z"/>
	<path class="st2" d="M284.6,162.7c0-5.9,1.1-10.4,3.2-14.6c0.7-1.5,1.8-2.8,3.4-3.3c1.5-0.5,2.8-0.1,4,0.9c1.4,1.3,2.2,2.9,2.9,4.6
		c2.3,5.7,3.6,11.6,5.3,17.5c2.5,8.9,4.5,17.9,7.4,26.6c1,3,2.2,5.9,3.5,8.7c0.2,0.3,0.6,0.7,0.2,1c-0.3,0.3-0.7-0.1-1-0.2
		c-5.8-2.6-10.6-6.6-14.8-11.3c-5.6-6.3-10.2-13.3-12.7-21.5C285.1,168,284.6,164.8,284.6,162.7z"/>
	<path class="st2" d="M365.6,200.5c2.1-4.6,3.7-9.4,5-14.4c3-11.1,6.1-22.2,9.4-33.3c0.7-2.3,1.6-4.4,2.8-6.4c0.6-0.9,1.2-1.8,2-2.5
		c1.8-1.6,3.4-1.5,5.2,0.2c1.3,1.3,2.1,2.9,2.9,4.5c3.7,8,3.3,16.1,0,24c-5.3,12.6-14.3,21.6-26.5,27.7
		C366.2,200.5,366,200.7,365.6,200.5z"/>
	<path class="st3" d="M340.1,258.8c1.2-0.1,2.4,0,3.6,0.3c1.9,0.5,2.9,1.5,3.1,3c0.2,1.8-0.8,3.5-2.5,4.2c-2.1,0.9-4.3,0.8-6.5,0.4
		c-1.9-0.4-3.7-0.9-5.2-2.3c-1.3-1.3-1.3-2.4,0.1-3.6c1.7-1.4,3.9-1.5,6-1.9C339.1,258.8,339.6,258.9,340.1,258.8z"/>
</g>
</svg>
